<?xml version="1.0" encoding="utf-8"?>
<!-- Generator: Adobe Illustrator 24.0.3, SVG Export Plug-In . SVG Version: 6.00 Build 0)  -->
<svg version="1.1" id="Layer_1" xmlns="http://www.w3.org/2000/svg" xmlns:xlink="http://www.w3.org/1999/xlink" x="0px" y="0px"
	 width="171px" height="32px" viewBox="0 0 171 32" enable-background="new 0 0 171 32" xml:space="preserve">
<g>
	<g>
		<g>
			<g>
				<g>
					<path fill="#503462" d="M65.184,7.2413c0.8934-0.5205,1.9718-0.8008,3.2587-0.8008c1.2378,0,2.3541,0.2428,3.3497,0.7282
						c0.995,0.4856,1.8505,1.1592,2.5668,2.0206c0.7157,0.8619,1.2619,1.8996,1.6384,3.1131
						c0.3761,1.2141,0.5644,2.5486,0.5644,4.0052c0,1.505-0.1945,2.8706-0.5825,4.096c-0.3887,1.226-0.941,2.2637-1.6568,3.1128
						c-0.7162,0.85-1.5718,1.5055-2.5668,1.9663c-0.9956,0.4608-2.0878,0.6917-3.2769,0.6917c-1.3106,0-2.3009-0.1756-3.2885-0.6694
						c0,0-0.9808-0.3923-2.1001-1.5328h-0.0729V32h-4.7484V6.9499h4.5663v2.0328h0.1093C62.9448,8.9827,63.858,8.0139,65.184,7.2413
						z M67.7337,22.2149c1.2508,0,2.2435-0.5069,2.9777-1.5204c0.7338-1.0138,1.1009-2.434,1.1009-4.2616
						c0-1.8265-0.3309-3.3161-0.9926-4.4677c-0.662-1.1511-1.7506-1.7271-3.2665-1.7271c-0.7705,0-1.4258,0.1632-1.9672,0.488
						c-0.5414,0.3259-0.9869,0.7637-1.3354,1.3141c-0.3492,0.5509-0.6018,1.2082-0.758,1.9714
						c-0.1568,0.7637-0.2346,1.5709-0.2346,2.4215c0,1.7525,0.3789,3.154,1.1369,4.2051
						C65.1529,21.6893,66.2656,22.2149,67.7337,22.2149z"/>
					<path fill="#503462" d="M85.7242,7.2413c0.8934-0.5205,1.9718-0.8008,3.2587-0.8008c1.2378,0,2.3541,0.2428,3.3497,0.7282
						c0.995,0.4856,1.8505,1.1592,2.5668,2.0206c0.7157,0.8619,1.2619,1.8996,1.6384,3.1131
						c0.3761,1.2141,0.5644,2.5486,0.5644,4.0052c0,1.505-0.1945,2.8706-0.5825,4.096c-0.3887,1.226-0.941,2.2637-1.6568,3.1128
						c-0.7161,0.85-1.5718,1.5055-2.5668,1.9663c-0.9956,0.4608-2.0878,0.6917-3.2769,0.6917c-1.3106,0-2.3009-0.1756-3.2885-0.6694
						c0,0-0.9808-0.3923-2.1001-1.5328h-0.0729V32h-4.7484V6.9499h4.5663v2.0328h0.1093
						C83.4849,8.9827,84.3981,8.0139,85.7242,7.2413z M88.2738,22.2149c1.2508,0,2.2435-0.5069,2.9777-1.5204
						c0.7338-1.0138,1.1009-2.434,1.1009-4.2616c0-1.8265-0.3309-3.3161-0.9926-4.4677c-0.662-1.1511-1.7506-1.7271-3.2665-1.7271
						c-0.7705,0-1.4258,0.1632-1.9672,0.488c-0.5414,0.3259-0.9869,0.7637-1.3354,1.3141c-0.3492,0.5509-0.6018,1.2082-0.758,1.9714
						c-0.1568,0.7637-0.2346,1.5709-0.2346,2.4215c0,1.7525,0.3789,3.154,1.1369,4.2051
						C85.6931,21.6893,86.8057,22.2149,88.2738,22.2149z"/>
					<path fill="#503462" d="M155.1288,27.8492h1.1946c0.995,0,1.7048-0.2309,2.13-0.6917
						c0.4243-0.4613,0.6372-1.0804,0.6372-1.8569c0-0.2425-0.0246-0.5156-0.0729-0.8192c-0.0489-0.3033-0.1275-0.6493-0.2366-1.0377
						c-0.1091-0.3881-0.255-0.8432-0.437-1.3653c-0.182-0.5218-0.4068-1.1344-0.6733-1.8388l-5.0246-13.2897h5.2066l2.7671,8.4107
						c0.1456,0.437,0.2849,0.8921,0.4186,1.3656c0.1332,0.4732,0.2607,0.9164,0.3822,1.3289
						c0.1213,0.4613,0.255,0.9226,0.4005,1.3834h0.0729c0.0967-0.4608,0.2058-0.9221,0.3276-1.3834
						c0.0967-0.4124,0.2123-0.8557,0.346-1.3289c0.1329-0.4735,0.2731-0.9286,0.4186-1.3656l2.6215-8.4107h4.9881l-6.5174,19.1516
						c-0.3641,1.0434-0.7344,1.9236-1.1106,2.6399c-0.3765,0.7155-0.6555,1.2981-1.1524,1.7475
						c-0.4978,0.4489-1.0804,0.7703-1.7478,0.965c-0.668,0.1939-1.4747,0.2912-2.4214,0.2912h-4.019L155.1288,27.8492z"/>
					<path fill="#503462" d="M125.4304,20.0647c-0.2676,0.7009-0.6905,1.2567-1.271,1.6677
						c-0.5827,0.413-1.3596,0.6191-2.3304,0.6191c-1.408,0-2.5064-0.4125-3.2948-1.2381c-0.7893-0.825-1.2808-1.9661-1.4748-3.4224
						h13.5444c0-1.6748-0.2001-3.198-0.6007-4.5695c-0.4006-1.3709-0.9894-2.5544-1.7659-3.5501
						c-0.7774-0.995-1.7358-1.7659-2.8765-2.312c-1.1411-0.5461-2.4639-0.8189-3.9685-0.8189c-1.3596,0-2.6034,0.2547-3.7321,0.7643
						c-1.1288,0.5099-2.0997,1.2017-2.9126,2.0754c-0.8136,0.8739-1.4446,1.9117-1.8934,3.113
						c-0.4496,1.2015-0.6737,2.494-0.6737,3.8775c0,1.3837,0.2123,2.6827,0.6373,3.8959c0.4245,1.214,1.0495,2.2636,1.8752,3.1495
						c0.8248,0.8864,1.8385,1.584,3.0401,2.0936c1.2014,0.5096,2.5788,0.7646,4.1324,0.7646c1.189,0,2.2693-0.1639,3.2407-0.4916
						c0.9705-0.3276,1.8142-0.7702,2.5302-1.3288c0.7158-0.558,1.2983-1.2073,1.7477-1.948
						c0.3082-0.508,0.5456-1.0376,0.7225-1.5859L125.4304,20.0647z M118.4792,11.3373c0.6792-0.7155,1.6749-1.0739,2.9855-1.0739
						c1.1407,0,2.0692,0.3703,2.7856,1.1106c0.7153,0.7407,1.1103,1.7053,1.1832,2.8943h-8.3013
						C117.3505,13.0306,117.7994,12.0535,118.4792,11.3373z"/>
					<path fill="#503462" d="M140.5915,6.4404c-1.1899,0-2.2762,0.2126-3.259,0.6369c-0.9833,0.4252-1.8333,1.0377-2.5485,1.8388
						c-0.7162,0.8011-1.2745,1.7659-1.6749,2.8946c-0.4004,1.1287-0.6008,2.3846-0.6008,3.7683c0,1.408,0.2364,2.6642,0.71,3.7687
						c0.4732,1.1047,1.092,2.0386,1.8569,2.8033c0.7644,0.7646,1.6385,1.3472,2.6213,1.7478
						c0.9833,0.4005,1.9963,0.6007,3.0406,0.6007c0,0,2.8338,0.2229,4.8786-1.7986h0.1092v1.653
						c0,2.597-1.3837,3.8959-4.1506,3.8959c-1.1653,0-2.0332-0.2004-2.6033-0.6007c-0.5385-0.3778-0.9029-0.8397-1.1057-1.3794
						l-4.3165,1.8386c0.5006,0.9291,1.2423,1.7115,2.1575,2.3441C137.1992,31.4838,139.4741,32,142.0472,32
						c1.3837,0,2.416-0.1702,3.5808-0.51c1.1653-0.34,2.1358-0.8737,2.913-1.6019c0.7034-0.6315,1.092-1.408,1.4806-2.3301
						c0.3876-0.9229,0.5824-2.0389,0.5824-3.3497V6.9499h-4.7699v1.6802h-0.0728C144.1682,6.255,140.5915,6.4404,140.5915,6.4404z
						 M145.7249,17.436c-0.1702,0.6072-0.4311,1.1414-0.7828,1.6022c-0.3522,0.4613-0.8069,0.8254-1.3652,1.0922
						c-0.5588,0.2674-1.2263,0.4003-2.0025,0.4003c-1.2868,0-2.3121-0.4367-3.077-1.3105c-0.7639-0.874-1.1469-2.1119-1.1469-3.7138
						c0-1.5776,0.3829-2.822,1.1469-3.7321c0.7649-0.9102,1.7784-1.3654,3.0406-1.3654c0.7521,0,1.4073,0.1337,1.9661,0.4006
						c0.5578,0.2674,1.0192,0.6314,1.3837,1.0922c0.364,0.4613,0.6373,1.0012,0.8192,1.6203
						c0.182,0.6188,0.2728,1.2686,0.2728,1.9479C145.9797,16.1741,145.8946,16.8296,145.7249,17.436z"/>
					<path fill="#503462" d="M101.197,0v6.7935h-2.6675v4.2139h2.6675v9.7274c0,0-0.1795,3.869,3.8476,4.8667
						c3.1004,0.7285,6.5151-0.5896,6.5151-0.5896l-1.7229-4.4311c0,0-3.7972,1.8722-3.7972-1.513c0-3.5478,0-8.0603,0-8.0603
						l3.8844-0.0282l1.6357-4.1857h-5.5201V0H101.197z"/>
					<path fill="#503462" d="M55.0789,22.8988v-9.503l-0.002,0.006v-0.0071c0-2.1846-0.6131-3.8775-1.8384-5.0792
						c-1.2263-1.2017-3.2349-1.8023-6.0259-1.8023c-1.3596,0-2.5367,0.1702-3.5317,0.5099c-0.9956,0.34-1.8205,0.7889-2.4757,1.3469
						c-0.6557,0.5588-1.1534,1.2079-1.4929,1.9479c-0.1021,0.2225-0.1853,0.4501-0.2591,0.6802l3.9166,1.6682h0.2018
						c0.0728-0.8978,0.4005-1.5595,0.9833-1.9841c0.5824-0.4246,1.456-0.6375,2.6213-0.6375c1.0433,0,1.8261,0.2004,2.3485,0.6007
						c0.5214,0.4008,0.7828,0.941,0.7828,1.6202c0,0.7045-0.364,1.1779-1.0925,1.4199c-0.728,0.2431-1.8692,0.4735-3.4226,0.692
						c-1.0438,0.1456-2.0204,0.3458-2.9309,0.6007c-0.91,0.255-1.7056,0.6132-2.3849,1.0742
						c-0.6798,0.4614-1.214,1.0439-1.6021,1.7477c-0.3885,0.7042-0.5824,1.5655-0.5824,2.5848c0,1.8696,0.6065,3.2895,1.8205,4.2599
						c1.2135,0.9713,2.7792,1.4566,4.697,1.4566c0,0,1.2709,0,2.4313-0.187c1.4043-0.2587,2.7274-1.0052,3.5371-1.8353
						l0.1846,1.5851h0.0023l-0.0004,0.0012h4.7698v-0.182C55.2973,25.1686,55.0789,24.3067,55.0789,22.8988z M50.4168,19.0747
						c0,0.4613-0.0974,0.9043-0.2912,1.3289c-0.1948,0.4249-0.4798,0.8011-0.8557,1.1287c-0.3768,0.3276-0.8376,0.595-1.3837,0.8008
						c-0.546,0.2066-1.1714,0.3095-1.8753,0.3095c-0.8736,0-1.578-0.1758-2.1117-0.5278c-0.5342-0.3517-0.8008-0.965-0.8008-1.8388
						c0-0.8737,0.3153-1.5046,0.9468-1.8934c0.6306-0.3879,1.6016-0.7281,2.9125-1.0193c0.6311-0.1459,1.256-0.2971,1.8754-0.4554
						c0.6188-0.1572,1.1468-0.3695,1.5836-0.6369V19.0747z"/>
				</g>
			</g>
		</g>
	</g>
	<g id="shape_6_">
		<path fill="#F5897F" d="M16.1461,0C7.2287,0,0,7.2287,0,16.1462c0,7.711,6.2551,14.1287,13.5281,15.7312
			c0.1608,0.0354,0.2626-0.1621,0.1407-0.2728C9.0419,27.403,5.7302,20.6942,5.5963,16.6954
			c-0.0386-1.153,0.2697-2.0686,0.7805-2.9775c0.9704-1.7259,2.0769-3.379,2.9829-5.1361c1.001-1.9409,1.7473-2.1931,3.7607-2.2471
			c1.9898-0.0535,3.9825-0.0013,5.973-0.0146c2.1775-0.0146,2.891,0.4359,3.954,2.373c1.103,2.0084,2.1054,3.2723,3.2141,5.2774
			c0.7491,1.353,0.6756,3.003-0.0764,4.3481c-0.946,1.6956-3.0713,5.24-3.2483,5.5852c-0.9054,1.7722-1.9556,2.1359-3.8911,2.1903
			c-0.4295,0.0114-1.3063,0.0087-1.7351,0c-1.1059-0.0256-2.0805,0.4939-2.7362,1.4698c-1.1422,1.6993,0.543,4.5618,2.7126,4.4318
			c8.4158-0.5109,15.0052-7.2786,15.0052-15.8495C32.2922,7.2287,25.0635,0,16.1461,0"/>
	</g>
</g>
</svg>
